<svg data-v-0dd9719b="" version="1.0" xmlns="http://www.w3.org/2000/svg" xmlns:xlink="http://www.w3.org/1999/xlink" width="100%" height="100%" viewBox="0 0 340.000000 250.000000" preserveAspectRatio="xMidYMid meet" color-interpolation-filters="sRGB" style="margin: auto;"> <rect data-v-0dd9719b="" x="0" y="0" width="100%" height="100%" fill="#fff" fill-opacity="1" class="background"></rect> <rect data-v-0dd9719b="" x="0" y="0" width="100%" height="100%" fill="url(#watermark)" fill-opacity="1" class="watermarklayer"></rect> <g data-v-0dd9719b="" fill="#333" class="icon-text-wrapper icon-svg-group iconsvg" transform="translate(49.21080017089844,93.31432151794434)"><g class="iconsvg-imagesvg" transform="translate(0,0)"><g><rect fill="#333" fill-opacity="0" stroke-width="2" x="0" y="0" width="60" height="63.37135614702155" class="image-rect"></rect> <svg x="0" y="0" width="60" height="63.37135614702155" filtersec="colorsb8775915988" class="image-svg-svg primary" style="overflow: visible;"><svg xmlns="http://www.w3.org/2000/svg" viewBox="-0.0000015679298712711898 -0.00001367961522191763 94.6801528930664 100.00001525878906"><path d="M38.43 95.46a47 47 0 0 0 8.91.85c26.13 0 47.34-21.53 47.34-48.15a48.38 48.38 0 0 0-10.63-30.38l-8.72 19.28 8.06.59-13.21 29.2L66.53 62A167.49 167.49 0 0 0 51 74.71 64.8 64.8 0 0 0 40.85 86.3c-1.37 2.15-3.33 5.77-2.64 8.45a2.68 2.68 0 0 0 .22.71z" fill="#333"></path><path d="M47.34 0C21.21 0 0 21.57 0 48.16a48.55 48.55 0 0 0 4 19.31c.13-.65.29-1.34.45-2 3.79-15.56 13.84-29.1 25.22-40.06A166.12 166.12 0 0 1 56.18 4.89L53.31.39A45.35 45.35 0 0 0 47.34 0z" fill="#8cc63e"></path><path d="M73.54 31.26L85.87 4.05l-26.72-2 2.68 4.11C35.86 21.73 4.14 49.36 7.05 82.71 8.91 90 14.58 93.64 24 93.93 4.47 75.86 55.4 38 70.57 27.34z" fill="#333"></path><path d="M69.3 59l8.06-17.78-17.46-1.29 1.73 2.68c-17 10.18-37.71 28.25-35.79 50.05C27 97.42 30.77 99.84 36.9 100 24.14 88.19 57.46 63.46 67.34 56.48z" fill="#8cc63e"></path></svg></svg> <!----></g></g> <g transform="translate(67,3.1594295501708984)"><g data-gra="path-name" fill-rule="" class="tp-name iconsvg-namesvg" transform="translate(0,0)"><g transform="scale(1)"><g><path d="M5.45-27.51L5.45-27.51 13.32-27.51 13.32-34.58Q13.32-37.4 16.13-37.4L16.13-37.4Q18.9-37.4 18.9-34.58L18.9-34.58 18.9 0.62Q18.9 3.43 16.13 3.43L16.13 3.43Q13.32 3.43 13.32 0.62L13.32 0.62 13.32-5.8Q12.44-5.41 6.11-2.72L6.11-2.72Q3.56-1.67 2.46-4.31L2.46-4.31Q1.8-5.76 2.07-6.61 2.33-7.47 3.78-7.91L3.78-7.91Q6.9-8.92 13.32-11.25L13.32-11.25 13.32-22.15 5.45-22.15Q2.77-22.15 2.77-24.83 2.77-27.51 5.45-27.51ZM24.52-5.19L24.52-5.19 24.52-34.63Q24.52-37.35 27.29-37.35L27.29-37.35Q29.97-37.35 29.97-34.63L29.97-34.63 29.97-23.86Q33.44-26.1 36.91-28.83L36.91-28.83Q38.14-29.84 39.07-29.71 39.99-29.58 41-28.3L41-28.3Q42.93-25.88 40.34-24.17L40.34-24.17Q36.12-21.49 29.97-18.24L29.97-18.24 29.97-5.1Q29.97-3.21 30.3-2.72 30.63-2.24 31.86-2.24L31.86-2.24 36.47-2.24Q37.22-2.24 37.64-2.81 38.06-3.38 38.23-4.79L38.23-4.79Q38.41-7.16 39.33-8.88 40.25-10.59 41.84-9.8L41.84-9.8Q42.85-9.32 43.22-7.76 43.59-6.2 43.42-4.66L43.42-4.66Q42.89-0.48 41.48 1.27 40.08 3.03 37.05 3.03L37.05 3.03 31.07 3.03Q27.25 3.03 25.88 1.3 24.52-0.44 24.52-5.19ZM84.59-28.7L84.59-28.7 50.36-28.7Q47.86-28.7 47.86-31.29L47.86-31.29Q47.86-33.79 50.36-33.79L50.36-33.79 64.56-33.79 64.56-35.33Q64.56-38.1 67.37-38.1L67.37-38.1Q70.14-38.1 70.14-35.33L70.14-35.33 70.14-33.79 84.59-33.79Q87.1-33.79 87.1-31.29L87.1-31.29Q87.1-28.7 84.59-28.7ZM57.79-5.05L57.79-5.05Q55.33-1.67 52.6 0.83L52.6 0.83Q50.93 2.24 49.17 1.05L49.17 1.05Q46.63-0.79 49.09-2.94L49.09-2.94Q51.33-5.1 52.91-7.43L52.91-7.43Q54.1-9.49 56.51-8.7L56.51-8.7Q59.59-7.73 57.79-5.05ZM75.67-20.96L75.67-20.96 59.33-20.96Q58.23-20.96 58.23-19.91L58.23-19.91 58.23-16.88Q58.23-15.78 59.33-15.78L59.33-15.78 75.67-15.78Q76.77-15.78 76.77-16.88L76.77-16.88 76.77-19.91Q76.77-20.96 75.67-20.96ZM55.85-25.58L55.85-25.58 79.45-25.58Q80.77-25.58 81.58-24.76 82.4-23.95 82.4-22.63L82.4-22.63 82.4-14.15Q82.4-12.83 81.58-12.02 80.77-11.21 79.45-11.21L79.45-11.21 70.14-11.21 70.14-1.71Q70.14 0.4 69.63 1.49 69.13 2.59 67.72 3.12L67.72 3.12Q65.92 3.78 62.45 3.87L62.45 3.87Q59.55 3.96 58.89 1.85L58.89 1.85Q58.36 0.26 59.26-0.46 60.16-1.19 62.05-1.14L62.05-1.14 63.68-1.14Q64.29-1.19 64.47-1.32 64.64-1.45 64.64-1.89L64.64-1.89 64.64-11.21 55.85-11.21Q54.54-11.21 53.72-12.02 52.91-12.83 52.91-14.15L52.91-14.15 52.91-22.63Q52.91-23.95 53.72-24.76 54.54-25.58 55.85-25.58ZM81.39 0.57L81.39 0.57Q78.93-2.59 77.17-4.79L77.17-4.79Q75.01-7.08 77.96-8.53L77.96-8.53Q79.85-9.45 81.3-7.95L81.3-7.95Q84.2-4.92 86.4-2.11L86.4-2.11Q87.23-0.83 86.92-0.07 86.62 0.7 85.21 1.45L85.21 1.45Q83.98 2.11 83.06 1.91 82.13 1.71 81.39 0.57ZM99.36-35.38L99.36-35.38 125.77-35.38Q127.53-35.38 127.95-34.45 128.36-33.53 127.27-31.82L127.27-31.82Q122.78-25.71 115.27-21.36L115.27-21.36 115.27-18.5 130.25-18.5Q132.93-18.5 132.93-15.82 132.93-13.14 130.25-13.14L130.25-13.14 115.27-13.14 115.27-2.33Q115.27 0.04 114.68 1.25 114.08 2.46 112.5 3.08L112.5 3.08Q110.57 3.87 106.3 4L106.3 4Q103.23 4 102.39 1.89L102.39 1.89Q101.69 0.13 102.68-0.68 103.67-1.49 105.78-1.41L105.78-1.41 108.54-1.41Q109.29-1.41 109.56-1.63 109.82-1.85 109.82-2.42L109.82-2.42 109.82-13.14 94.79-13.14Q92.11-13.14 92.11-15.82 92.11-18.5 94.79-18.5L94.79-18.5 109.82-18.5 109.82-23.12Q109.82-24.26 110.5-24.94 111.18-25.62 112.28-25.62L112.28-25.62 112.41-25.62Q115.75-27.64 118.78-30.1L118.78-30.1 99.36-30.1Q96.77-30.1 96.77-32.74 96.77-35.38 99.36-35.38ZM143.7-24.7L143.7-24.7 143.7 1.27Q143.7 3.87 141.06 3.87L141.06 3.87Q138.47 3.87 138.47 1.27L138.47 1.27 138.47-24.7Q138.47-27.33 141.06-27.33L141.06-27.33Q143.7-27.33 143.7-24.7ZM143-30.63L143-30.63Q141.46-32.7 140.93-33.27L140.93-33.27Q139.13-35.2 141.42-36.74L141.42-36.74Q143.13-37.84 144.54-36.39L144.54-36.39Q146.82-34.01 147.48-33.09L147.48-33.09Q148.67-31.25 146.65-29.93L146.65-29.93Q144.36-28.39 143-30.63ZM153.02-15.07L153.02-15.07 161.5-15.07Q162.6-15.07 162.6-16.17L162.6-16.17 162.6-17.89Q162.6-18.94 161.5-18.94L161.5-18.94 153.02-18.94Q151.92-18.94 151.92-17.89L151.92-17.89 151.92-16.17Q151.92-15.07 153.02-15.07ZM152.75-35.9L152.75-35.9 173.67-35.9Q174.99-35.9 175.78-35.11 176.57-34.32 176.57-33L176.57-33 176.57-1.67Q176.57 0.22 176.18 1.25 175.78 2.29 174.68 2.9L174.68 2.9Q173.58 3.47 171.43 3.69L171.43 3.69Q169.89 3.74 168.88 3.08 167.87 2.42 167.61 1.23L167.61 1.23Q167.52 1.05 167.39 0.62 167.26 0.18 167.21 0L167.21 0Q166.64 0.18 165.67 0.18L165.67 0.18 162.64 0.18Q159.92 0.18 158.99-0.94 158.07-2.07 158.07-5.05L158.07-5.05 158.07-10.9 156.18-10.9Q155.65-7.34 154.27-4.72 152.89-2.11 150.07-0.22L150.07-0.22Q147.39 1.14 146.21-0.48L146.21-0.48Q144.58-2.72 148.1-4.66L148.1-4.66Q150.78-6.77 151.52-10.9L151.52-10.9 149.28-10.9Q148.36-10.9 147.83-11.43 147.3-11.95 147.3-12.88L147.3-12.88 147.3-20.26Q147.3-21.58 148.1-22.37 148.89-23.16 150.21-23.16L150.21-23.16 151.3-23.16Q150.69-24.7 149.41-26.72L149.41-26.72Q148.97-27.33 149.15-27.93 149.33-28.52 150.03-28.74L150.03-28.74Q151.22-29.27 152.38-28.7 153.54-28.13 154.34-26.85L154.34-26.85Q155.04-25.75 154.91-24.72 154.78-23.69 153.76-23.16L153.76-23.16 158.16-23.16Q159.43-25 160.88-27.99L160.88-27.99Q161.76-29.97 163.96-29.49L163.96-29.49Q166.95-28.83 165.23-26.02L165.23-26.02Q164.53-24.74 163.43-23.16L163.43-23.16 165.59-23.16Q167.48-23.16 167.48-21.27L167.48-21.27 167.48-13.8Q167.48-12.48 166.68-11.69 165.89-10.9 164.58-10.9L164.58-10.9 162.69-10.9 162.69-5.1Q162.69-4.31 162.82-4.11 162.95-3.91 163.43-3.91L163.43-3.91 165.1-3.91Q165.32-3.91 165.37-3.96L165.37-3.96Q166.07-7.29 168.49-6.33L168.49-6.33Q169.45-5.93 169.63-4.79 169.8-3.65 169.48-2.57 169.15-1.49 168.66-0.88L168.66-0.88 170.68-0.88Q171.47-0.88 171.47-1.71L171.47-1.71 171.47-30.15Q171.47-31.25 170.42-31.25L170.42-31.25 152.75-31.25Q150.42-31.25 150.42-33.57 150.42-35.9 152.75-35.9Z" transform="translate(-1.9916129112243652, 38.099998474121094)"></path></g> <!----> <!----> <!----> <!----> <!----> <!----> <!----></g></g> <g data-gra="path-slogan" fill-rule="" class="tp-slogan iconsvg-slogansvg" fill="#333" transform="translate(45.524200439453125,48.099998474121094)"><!----> <!----> <g transform="scale(1, 1)"><g transform="scale(1)"><path d="M4.13-7.64L2.06-7.64L2.06-4.97L4.13-4.97Q5.95-4.92 5.91-6.38L5.91-6.38Q5.91-7.64 4.13-7.64L4.13-7.64ZM4.59 0L0.89 0L0.89-8.58L4.69-8.58Q6.98-8.48 7.08-6.42L7.08-6.42Q7.08-5.16 5.95-4.64L5.95-4.64Q7.55-4.08 7.55-2.53L7.55-2.53Q7.41-0.09 4.59 0L4.59 0ZM4.31-3.98L2.06-3.98L2.06-0.98L4.55-0.98Q6.33-1.03 6.38-2.53L6.38-2.53Q6.38-3.98 4.31-3.98L4.31-3.98ZM10.17-1.03L15.33-1.03L15.33 0L9 0L9-8.58L15.23-8.58L15.23-7.59L10.17-7.59L10.17-4.92L14.86-4.92L14.86-3.89L10.17-3.89L10.17-1.03ZM17.02-8.58L18.19-8.58L18.19 0L17.02 0L17.02-8.58ZM19.45-1.92L19.45-2.77L20.53-2.77L20.53-2.16Q20.53-0.75 21.84-0.75L21.84-0.75Q23.20-0.75 23.20-2.25L23.20-2.25L23.20-8.58L24.38-8.58L24.38-2.30Q24.33 0.09 21.89 0.14L21.89 0.14Q19.59 0.09 19.45-1.92L19.45-1.92ZM26.34-8.58L27.52-8.58L27.52 0L26.34 0L26.34-8.58ZM30.89-8.58L35.20-1.64L35.20-8.58L36.33-8.58L36.33 0L35.02 0L30.66-6.94L30.61-6.94L30.61 0L29.48 0L29.48-8.58L30.89-8.58ZM44.53-3.61L41.91-3.61L41.91-4.59L45.66-4.59L45.66 0L44.91 0L44.63-1.08Q43.64 0.09 41.81 0.14L41.81 0.14Q40.08 0.14 39.14-0.75L39.14-0.75Q37.73-2.06 37.78-4.36L37.78-4.36Q38.11-8.63 41.86-8.81L41.86-8.81Q45.05-8.63 45.52-6L45.52-6L44.39-6Q43.92-7.78 41.81-7.83L41.81-7.83Q39.14-7.64 39-4.31L39-4.31Q39-0.75 41.86-0.75L41.86-0.75Q42.89-0.75 43.64-1.31L43.64-1.31Q44.58-2.06 44.53-3.61L44.53-3.61ZM51.61-1.03L56.91-1.03L56.91 0L50.16 0L50.16-0.94L55.41-7.59L50.53-7.59L50.53-8.58L56.91-8.58L56.91-7.59L51.61-1.03ZM58.22-8.58L59.39-8.58L59.39 0L58.22 0L58.22-8.58ZM68.30-8.58L65.06-3.47L65.06 0L63.89 0L63.89-3.47L60.66-8.58L62.02-8.58L64.45-4.45L66.94-8.58L68.30-8.58ZM75-3.19L75-8.58L76.17-8.58L76.17-3.05Q76.03 0.05 72.66 0.14L72.66 0.14Q69.52 0.05 69.38-2.86L69.38-2.86L69.38-8.58L70.55-8.58L70.55-3.19Q70.59-0.84 72.70-0.80L72.70-0.80Q75-0.84 75-3.19L75-3.19ZM79.27-1.03L84.42-1.03L84.42 0L78.09 0L78.09-8.58L84.33-8.58L84.33-7.59L79.27-7.59L79.27-4.92L83.95-4.92L83.95-3.89L79.27-3.89L79.27-1.03Z" transform="translate(-0.890625, 8.8125)"></path></g></g></g></g></g><defs v-gra="od"></defs></svg>